<?xml version="1.0" encoding="UTF-8" ?>
<svg version="1.1" width="4096" height="4096" xmlns="http://www.w3.org/2000/svg" shape-rendering="crispEdges">
<rect x="0" y="0" width="256" height="256" fill="#F0807A" />
<rect x="256" y="0" width="256" height="256" fill="#F0807A" />
<rect x="512" y="0" width="256" height="256" fill="#F0807A" />
<rect x="768" y="0" width="256" height="256" fill="#F0807A" />
<rect x="1024" y="0" width="256" height="256" fill="#F0807A" />
<rect x="1280" y="0" width="256" height="256" fill="#F0807A" />
<rect x="1536" y="0" width="256" height="256" fill="#F0807A" />
<rect x="1792" y="0" width="256" height="256" fill="#F0807A" />
<rect x="2048" y="0" width="256" height="256" fill="#F0807A" />
<rect x="2304" y="0" width="256" height="256" fill="#F1D3D2" />
<rect x="2560" y="0" width="256" height="256" fill="#F1D3D2" />
<rect x="2816" y="0" width="256" height="256" fill="#F1D3D2" />
<rect x="3072" y="0" width="256" height="256" fill="#F0807A" />
<rect x="3328" y="0" width="256" height="256" fill="#F0807A" />
<rect x="3584" y="0" width="256" height="256" fill="#F0807A" />
<rect x="3840" y="0" width="256" height="256" fill="#F1D3D2" />
<rect x="0" y="256" width="256" height="256" fill="#8C0909" />
<rect x="256" y="256" width="256" height="256" fill="#B10606" />
<rect x="512" y="256" width="256" height="256" fill="#FA3B00" />
<rect x="768" y="256" width="256" height="256" fill="#FA3B00" />
<rect x="1024" y="256" width="256" height="256" fill="#FA3B00" />
<rect x="1280" y="256" width="256" height="256" fill="#FA3B00" />
<rect x="1536" y="256" width="256" height="256" fill="#FA3B00" />
<rect x="1792" y="256" width="256" height="256" fill="#FA3B00" />
<rect x="2048" y="256" width="256" height="256" fill="#FA3B00" />
<rect x="2304" y="256" width="256" height="256" fill="#FA3B00" />
<rect x="2560" y="256" width="256" height="256" fill="#FA3B00" />
<rect x="2816" y="256" width="256" height="256" fill="#FA3B00" />
<rect x="3072" y="256" width="256" height="256" fill="#FA3B00" />
<rect x="3328" y="256" width="256" height="256" fill="#FA3B00" />
<rect x="3584" y="256" width="256" height="256" fill="#FA3B00" />
<rect x="3840" y="256" width="256" height="256" fill="#F0807A" />
<rect x="0" y="512" width="256" height="256" fill="#8C0909" />
<rect x="256" y="512" width="256" height="256" fill="#B10606" />
<rect x="512" y="512" width="256" height="256" fill="#FA3B00" />
<rect x="768" y="512" width="256" height="256" fill="#05030E" />
<rect x="1024" y="512" width="256" height="256" fill="#05030E" />
<rect x="1280" y="512" width="256" height="256" fill="#05030E" />
<rect x="1536" y="512" width="256" height="256" fill="#FA3B00" />
<rect x="1792" y="512" width="256" height="256" fill="#FA3B00" />
<rect x="2048" y="512" width="256" height="256" fill="#FA3B00" />
<rect x="2304" y="512" width="256" height="256" fill="#FA3B00" />
<rect x="2560" y="512" width="256" height="256" fill="#FA3B00" />
<rect x="2816" y="512" width="256" height="256" fill="#05030E" />
<rect x="3072" y="512" width="256" height="256" fill="#05030E" />
<rect x="3328" y="512" width="256" height="256" fill="#05030E" />
<rect x="3584" y="512" width="256" height="256" fill="#FA3B00" />
<rect x="3840" y="512" width="256" height="256" fill="#F1D3D2" />
<rect x="0" y="768" width="256" height="256" fill="#8C0909" />
<rect x="256" y="768" width="256" height="256" fill="#B10606" />
<rect x="512" y="768" width="256" height="256" fill="#FA3B00" />
<rect x="768" y="768" width="256" height="256" fill="#FA3B00" />
<rect x="1024" y="768" width="256" height="256" fill="#FFFFFF" />
<rect x="1280" y="768" width="256" height="256" fill="#05030E" />
<rect x="1536" y="768" width="256" height="256" fill="#05030E" />
<rect x="1792" y="768" width="256" height="256" fill="#FA3B00" />
<rect x="2048" y="768" width="256" height="256" fill="#FA3B00" />
<rect x="2304" y="768" width="256" height="256" fill="#FA3B00" />
<rect x="2560" y="768" width="256" height="256" fill="#05030E" />
<rect x="2816" y="768" width="256" height="256" fill="#05030E" />
<rect x="3072" y="768" width="256" height="256" fill="#FFFFFF" />
<rect x="3328" y="768" width="256" height="256" fill="#FA3B00" />
<rect x="3584" y="768" width="256" height="256" fill="#FA3B00" />
<rect x="3840" y="768" width="256" height="256" fill="#F0807A" />
<rect x="0" y="1024" width="256" height="256" fill="#8C0909" />
<rect x="256" y="1024" width="256" height="256" fill="#B10606" />
<rect x="512" y="1024" width="256" height="256" fill="#FA3B00" />
<rect x="768" y="1024" width="256" height="256" fill="#FA3B00" />
<rect x="1024" y="1024" width="256" height="256" fill="#FFFFFF" />
<rect x="1280" y="1024" width="256" height="256" fill="#DCC959" />
<rect x="1536" y="1024" width="256" height="256" fill="#FA3B00" />
<rect x="1792" y="1024" width="256" height="256" fill="#FA3B00" />
<rect x="2048" y="1024" width="256" height="256" fill="#FA3B00" />
<rect x="2304" y="1024" width="256" height="256" fill="#FA3B00" />
<rect x="2560" y="1024" width="256" height="256" fill="#FA3B00" />
<rect x="2816" y="1024" width="256" height="256" fill="#DCC959" />
<rect x="3072" y="1024" width="256" height="256" fill="#FFFFFF" />
<rect x="3328" y="1024" width="256" height="256" fill="#FA3B00" />
<rect x="3584" y="1024" width="256" height="256" fill="#FA3B00" />
<rect x="3840" y="1024" width="256" height="256" fill="#F0807A" />
<rect x="0" y="1280" width="256" height="256" fill="#8C0909" />
<rect x="256" y="1280" width="256" height="256" fill="#B10606" />
<rect x="512" y="1280" width="256" height="256" fill="#FA3B00" />
<rect x="768" y="1280" width="256" height="256" fill="#FA3B00" />
<rect x="1024" y="1280" width="256" height="256" fill="#FA3B00" />
<rect x="1280" y="1280" width="256" height="256" fill="#FA3B00" />
<rect x="1536" y="1280" width="256" height="256" fill="#FA3B00" />
<rect x="1792" y="1280" width="256" height="256" fill="#FA3B00" />
<rect x="2048" y="1280" width="256" height="256" fill="#FA3B00" />
<rect x="2304" y="1280" width="256" height="256" fill="#FA3B00" />
<rect x="2560" y="1280" width="256" height="256" fill="#FA3B00" />
<rect x="2816" y="1280" width="256" height="256" fill="#FA3B00" />
<rect x="3072" y="1280" width="256" height="256" fill="#FA3B00" />
<rect x="3328" y="1280" width="256" height="256" fill="#FA3B00" />
<rect x="3584" y="1280" width="256" height="256" fill="#FA3B00" />
<rect x="3840" y="1280" width="256" height="256" fill="#F0807A" />
<rect x="0" y="1536" width="256" height="256" fill="#8C0909" />
<rect x="256" y="1536" width="256" height="256" fill="#B10606" />
<rect x="512" y="1536" width="256" height="256" fill="#FA3B00" />
<rect x="768" y="1536" width="256" height="256" fill="#FA3B00" />
<rect x="1024" y="1536" width="256" height="256" fill="#FA3B00" />
<rect x="1280" y="1536" width="256" height="256" fill="#FA3B00" />
<rect x="1536" y="1536" width="256" height="256" fill="#FA3B00" />
<rect x="1792" y="1536" width="256" height="256" fill="#FA3B00" />
<rect x="2048" y="1536" width="256" height="256" fill="#FA3B00" />
<rect x="2304" y="1536" width="256" height="256" fill="#FA3B00" />
<rect x="2560" y="1536" width="256" height="256" fill="#FA3B00" />
<rect x="2816" y="1536" width="256" height="256" fill="#FA3B00" />
<rect x="3072" y="1536" width="256" height="256" fill="#FA3B00" />
<rect x="3328" y="1536" width="256" height="256" fill="#FA3B00" />
<rect x="3584" y="1536" width="256" height="256" fill="#FA3B00" />
<rect x="3840" y="1536" width="256" height="256" fill="#F0807A" />
<rect x="0" y="1792" width="256" height="256" fill="#8C0909" />
<rect x="256" y="1792" width="256" height="256" fill="#B10606" />
<rect x="512" y="1792" width="256" height="256" fill="#FA3B00" />
<rect x="768" y="1792" width="256" height="256" fill="#FA3B00" />
<rect x="1024" y="1792" width="256" height="256" fill="#05030E" />
<rect x="1280" y="1792" width="256" height="256" fill="#05030E" />
<rect x="1536" y="1792" width="256" height="256" fill="#05030E" />
<rect x="1792" y="1792" width="256" height="256" fill="#05030E" />
<rect x="2048" y="1792" width="256" height="256" fill="#05030E" />
<rect x="2304" y="1792" width="256" height="256" fill="#05030E" />
<rect x="2560" y="1792" width="256" height="256" fill="#05030E" />
<rect x="2816" y="1792" width="256" height="256" fill="#05030E" />
<rect x="3072" y="1792" width="256" height="256" fill="#05030E" />
<rect x="3328" y="1792" width="256" height="256" fill="#FA3B00" />
<rect x="3584" y="1792" width="256" height="256" fill="#FA3B00" />
<rect x="3840" y="1792" width="256" height="256" fill="#F0807A" />
<rect x="0" y="2048" width="256" height="256" fill="#8C0909" />
<rect x="256" y="2048" width="256" height="256" fill="#B10606" />
<rect x="512" y="2048" width="256" height="256" fill="#FA3B00" />
<rect x="768" y="2048" width="256" height="256" fill="#FA3B00" />
<rect x="1024" y="2048" width="256" height="256" fill="#77008A" />
<rect x="1280" y="2048" width="256" height="256" fill="#FFFFFF" />
<rect x="1536" y="2048" width="256" height="256" fill="#590066" />
<rect x="1792" y="2048" width="256" height="256" fill="#FFFFFF" />
<rect x="2048" y="2048" width="256" height="256" fill="#590066" />
<rect x="2304" y="2048" width="256" height="256" fill="#FFFFFF" />
<rect x="2560" y="2048" width="256" height="256" fill="#590066" />
<rect x="2816" y="2048" width="256" height="256" fill="#FFFFFF" />
<rect x="3072" y="2048" width="256" height="256" fill="#77008A" />
<rect x="3328" y="2048" width="256" height="256" fill="#FA3B00" />
<rect x="3584" y="2048" width="256" height="256" fill="#FA3B00" />
<rect x="3840" y="2048" width="256" height="256" fill="#F0807A" />
<rect x="0" y="2304" width="256" height="256" fill="#8C0909" />
<rect x="256" y="2304" width="256" height="256" fill="#B10606" />
<rect x="512" y="2304" width="256" height="256" fill="#FA3B00" />
<rect x="768" y="2304" width="256" height="256" fill="#FA3B00" />
<rect x="1024" y="2304" width="256" height="256" fill="#77008A" />
<rect x="1280" y="2304" width="256" height="256" fill="#590066" />
<rect x="1536" y="2304" width="256" height="256" fill="#590066" />
<rect x="1792" y="2304" width="256" height="256" fill="#FFFFFF" />
<rect x="2048" y="2304" width="256" height="256" fill="#590066" />
<rect x="2304" y="2304" width="256" height="256" fill="#FFFFFF" />
<rect x="2560" y="2304" width="256" height="256" fill="#590066" />
<rect x="2816" y="2304" width="256" height="256" fill="#590066" />
<rect x="3072" y="2304" width="256" height="256" fill="#77008A" />
<rect x="3328" y="2304" width="256" height="256" fill="#FA3B00" />
<rect x="3584" y="2304" width="256" height="256" fill="#FA3B00" />
<rect x="3840" y="2304" width="256" height="256" fill="#F0807A" />
<rect x="0" y="2560" width="256" height="256" fill="#8C0909" />
<rect x="256" y="2560" width="256" height="256" fill="#B10606" />
<rect x="512" y="2560" width="256" height="256" fill="#FA3B00" />
<rect x="768" y="2560" width="256" height="256" fill="#FA3B00" />
<rect x="1024" y="2560" width="256" height="256" fill="#05030E" />
<rect x="1280" y="2560" width="256" height="256" fill="#590066" />
<rect x="1536" y="2560" width="256" height="256" fill="#590066" />
<rect x="1792" y="2560" width="256" height="256" fill="#590066" />
<rect x="2048" y="2560" width="256" height="256" fill="#590066" />
<rect x="2304" y="2560" width="256" height="256" fill="#590066" />
<rect x="2560" y="2560" width="256" height="256" fill="#590066" />
<rect x="2816" y="2560" width="256" height="256" fill="#590066" />
<rect x="3072" y="2560" width="256" height="256" fill="#05030E" />
<rect x="3328" y="2560" width="256" height="256" fill="#FA3B00" />
<rect x="3584" y="2560" width="256" height="256" fill="#FA3B00" />
<rect x="3840" y="2560" width="256" height="256" fill="#F0807A" />
<rect x="0" y="2816" width="256" height="256" fill="#8C0909" />
<rect x="256" y="2816" width="256" height="256" fill="#B10606" />
<rect x="512" y="2816" width="256" height="256" fill="#FA3B00" />
<rect x="768" y="2816" width="256" height="256" fill="#FA3B00" />
<rect x="1024" y="2816" width="256" height="256" fill="#FA3B00" />
<rect x="1280" y="2816" width="256" height="256" fill="#05030E" />
<rect x="1536" y="2816" width="256" height="256" fill="#FFFFFF" />
<rect x="1792" y="2816" width="256" height="256" fill="#590066" />
<rect x="2048" y="2816" width="256" height="256" fill="#590066" />
<rect x="2304" y="2816" width="256" height="256" fill="#590066" />
<rect x="2560" y="2816" width="256" height="256" fill="#FFFFFF" />
<rect x="2816" y="2816" width="256" height="256" fill="#05030E" />
<rect x="3072" y="2816" width="256" height="256" fill="#FA3B00" />
<rect x="3328" y="2816" width="256" height="256" fill="#FA3B00" />
<rect x="3584" y="2816" width="256" height="256" fill="#FA3B00" />
<rect x="3840" y="2816" width="256" height="256" fill="#F0807A" />
<rect x="0" y="3072" width="256" height="256" fill="#8C0909" />
<rect x="256" y="3072" width="256" height="256" fill="#B10606" />
<rect x="512" y="3072" width="256" height="256" fill="#FA3B00" />
<rect x="768" y="3072" width="256" height="256" fill="#FA3B00" />
<rect x="1024" y="3072" width="256" height="256" fill="#FA3B00" />
<rect x="1280" y="3072" width="256" height="256" fill="#FA3B00" />
<rect x="1536" y="3072" width="256" height="256" fill="#05030E" />
<rect x="1792" y="3072" width="256" height="256" fill="#590066" />
<rect x="2048" y="3072" width="256" height="256" fill="#FFFFFF" />
<rect x="2304" y="3072" width="256" height="256" fill="#590066" />
<rect x="2560" y="3072" width="256" height="256" fill="#05030E" />
<rect x="2816" y="3072" width="256" height="256" fill="#FA3B00" />
<rect x="3072" y="3072" width="256" height="256" fill="#FA3B00" />
<rect x="3328" y="3072" width="256" height="256" fill="#FA3B00" />
<rect x="3584" y="3072" width="256" height="256" fill="#FA3B00" />
<rect x="3840" y="3072" width="256" height="256" fill="#F0807A" />
<rect x="0" y="3328" width="256" height="256" fill="#8C0909" />
<rect x="256" y="3328" width="256" height="256" fill="#B10606" />
<rect x="512" y="3328" width="256" height="256" fill="#FA3B00" />
<rect x="768" y="3328" width="256" height="256" fill="#FA3B00" />
<rect x="1024" y="3328" width="256" height="256" fill="#FA3B00" />
<rect x="1280" y="3328" width="256" height="256" fill="#FA3B00" />
<rect x="1536" y="3328" width="256" height="256" fill="#FA3B00" />
<rect x="1792" y="3328" width="256" height="256" fill="#05030E" />
<rect x="2048" y="3328" width="256" height="256" fill="#05030E" />
<rect x="2304" y="3328" width="256" height="256" fill="#05030E" />
<rect x="2560" y="3328" width="256" height="256" fill="#FA3B00" />
<rect x="2816" y="3328" width="256" height="256" fill="#FA3B00" />
<rect x="3072" y="3328" width="256" height="256" fill="#FA3B00" />
<rect x="3328" y="3328" width="256" height="256" fill="#FA3B00" />
<rect x="3584" y="3328" width="256" height="256" fill="#FA3B00" />
<rect x="3840" y="3328" width="256" height="256" fill="#F0807A" />
<rect x="0" y="3584" width="256" height="256" fill="#8C0909" />
<rect x="256" y="3584" width="256" height="256" fill="#B10606" />
<rect x="512" y="3584" width="256" height="256" fill="#B10606" />
<rect x="768" y="3584" width="256" height="256" fill="#B10606" />
<rect x="1024" y="3584" width="256" height="256" fill="#B10606" />
<rect x="1280" y="3584" width="256" height="256" fill="#B10606" />
<rect x="1536" y="3584" width="256" height="256" fill="#B10606" />
<rect x="1792" y="3584" width="256" height="256" fill="#B10606" />
<rect x="2048" y="3584" width="256" height="256" fill="#B10606" />
<rect x="2304" y="3584" width="256" height="256" fill="#B10606" />
<rect x="2560" y="3584" width="256" height="256" fill="#B10606" />
<rect x="2816" y="3584" width="256" height="256" fill="#B10606" />
<rect x="3072" y="3584" width="256" height="256" fill="#B10606" />
<rect x="3328" y="3584" width="256" height="256" fill="#B10606" />
<rect x="3584" y="3584" width="256" height="256" fill="#B10606" />
<rect x="3840" y="3584" width="256" height="256" fill="#F0807A" />
<rect x="0" y="3840" width="256" height="256" fill="#8C0909" />
<rect x="256" y="3840" width="256" height="256" fill="#8C0909" />
<rect x="512" y="3840" width="256" height="256" fill="#8C0909" />
<rect x="768" y="3840" width="256" height="256" fill="#8C0909" />
<rect x="1024" y="3840" width="256" height="256" fill="#8C0909" />
<rect x="1280" y="3840" width="256" height="256" fill="#8C0909" />
<rect x="1536" y="3840" width="256" height="256" fill="#8C0909" />
<rect x="1792" y="3840" width="256" height="256" fill="#8C0909" />
<rect x="2048" y="3840" width="256" height="256" fill="#8C0909" />
<rect x="2304" y="3840" width="256" height="256" fill="#8C0909" />
<rect x="2560" y="3840" width="256" height="256" fill="#8C0909" />
<rect x="2816" y="3840" width="256" height="256" fill="#8C0909" />
<rect x="3072" y="3840" width="256" height="256" fill="#8C0909" />
<rect x="3328" y="3840" width="256" height="256" fill="#8C0909" />
<rect x="3584" y="3840" width="256" height="256" fill="#8C0909" />
<rect x="3840" y="3840" width="256" height="256" fill="#F0807A" />
</svg>